# MagicaVoxel @ Ephtracy

# group
o L_Hand

# material
mtllib Circuit B - Character-3-L_Hand.mtl
usemtl palette

# normals
vn -1 0 0
vn 1 0 0
vn 0 0 1
vn 0 0 -1
vn 0 -1 0
vn 0 1 0

# texcoords
vt 0.646484 0.5
vt 0.650391 0.5

# verts
v -0.1 -0.1 0.1
v -0.1 -0.1 -0.1
v -0.1 0 0
v -0.1 0 -0.1
v -0.1 0.1 0.1
v -0.1 0.1 0
v -0.1 0.1 -0.1
v 0.1 -0.1 0.1
v 0.1 -0.1 0
v 0.1 -0.1 -0.1
v 0.1 0.1 0.1
v 0.1 0.1 0
v 0.1 0.1 -0.1
v -0.1 -0.1 0.1
v -0.1 0.1 0.1
v 0.1 -0.1 0.1
v 0.1 0.1 0.1
v -0.1 -0.1 -0.1
v -0.1 0 -0.1
v -0.1 0.1 -0.1
v 0 -0.1 -0.1
v 0 0 -0.1
v 0.1 -0.1 -0.1
v 0.1 0.1 -0.1
v -0.1 -0.1 0.1
v 0.1 -0.1 0.1
v 0 -0.1 0
v 0.1 -0.1 0
v -0.1 -0.1 -0.1
v 0 -0.1 -0.1
v 0.1 -0.1 -0.1
v -0.1 0.1 0.1
v 0.1 0.1 0.1
v -0.1 0.1 0
v 0.1 0.1 0
v -0.1 0.1 -0.1
v 0.1 0.1 -0.1

# faces
f 3/1/1 2/1/1 1/1/1
f 4/1/1 2/1/1 3/1/1
f 5/1/1 3/1/1 1/1/1
f 6/2/1 4/2/1 3/2/1
f 6/1/1 3/1/1 5/1/1
f 7/2/1 4/2/1 6/2/1
f 8/1/2 9/1/2 11/1/2
f 9/2/2 10/2/2 12/2/2
f 11/1/2 9/1/2 12/1/2
f 12/2/2 10/2/2 13/2/2
f 16/1/3 15/1/3 14/1/3
f 17/1/3 15/1/3 16/1/3
f 18/1/4 19/1/4 21/1/4
f 19/2/4 20/2/4 22/2/4
f 21/1/4 19/1/4 22/1/4
f 21/2/4 22/2/4 23/2/4
f 22/2/4 20/2/4 24/2/4
f 23/2/4 22/2/4 24/2/4
f 27/1/5 26/1/5 25/1/5
f 28/1/5 26/1/5 27/1/5
f 29/1/5 27/1/5 25/1/5
f 30/2/5 28/2/5 27/2/5
f 30/1/5 27/1/5 29/1/5
f 31/2/5 28/2/5 30/2/5
f 32/1/6 33/1/6 34/1/6
f 34/1/6 33/1/6 35/1/6
f 34/2/6 35/2/6 36/2/6
f 36/2/6 35/2/6 37/2/6
