# MagicaVoxel @ Ephtracy

# group
o L_foot

# material
mtllib Circuit B - Character-7-L_foot.mtl
usemtl palette

# normals
vn -1 0 0
vn 1 0 0
vn 0 0 1
vn 0 0 -1
vn 0 -1 0
vn 0 1 0

# texcoords
vt 0.646484 0.5
vt 0.650391 0.5
vt 0.837891 0.5

# verts
v -0.4 -0.15 0.1
v -0.4 -0.15 -0.1
v -0.4 -0.05 0.1
v -0.4 -0.05 -0.1
v -0.3 -0.15 0.2
v -0.3 -0.15 0.1
v -0.3 -0.15 -0.1
v -0.3 -0.15 -0.2
v -0.3 -0.05 0.2
v -0.3 -0.05 0.1
v -0.3 -0.05 -0.1
v -0.3 -0.05 -0.2
v -0.3 0.05 0.1
v -0.3 0.05 -0.1
v -0.2 -0.05 -0.1
v -0.2 -0.05 -0.2
v -0.2 0.05 -0.1
v -0.2 0.05 -0.2
v -0.1 0.05 0
v -0.1 0.05 -0.1
v -0.1 0.15 0
v -0.1 0.15 -0.1
v 0.1 -0.05 0.1
v 0.1 -0.05 0
v 0.1 -0.05 -0.1
v 0.1 -0.05 -0.2
v 0.1 0.05 0.1
v 0.1 0.05 0
v 0.1 0.05 -0.1
v 0.1 0.05 -0.2
v 0 -0.05 0.1
v 0 -0.05 0
v 0 -0.05 -0.1
v 0 -0.05 -0.2
v 0 0.05 0.1
v 0 0.05 0
v 0 0.05 -0.1
v 0 0.05 -0.2
v 0 0.15 0
v 0 0.15 -0.1
v 0.2 -0.15 0.2
v 0.2 -0.15 0.1
v 0.2 -0.05 0.2
v 0.2 -0.05 0.1
v 0.3 -0.05 0.1
v 0.3 -0.05 0
v 0.3 -0.05 -0.1
v 0.3 -0.05 -0.2
v 0.3 0.05 0.1
v 0.3 0.05 0
v 0.3 0.05 -0.1
v 0.3 0.05 -0.2
v 0.4 -0.15 0.1
v 0.4 -0.15 -0.2
v 0.4 -0.05 0.1
v 0.4 -0.05 0
v 0.4 -0.05 -0.1
v 0.4 -0.05 -0.2
v 0.4 0.05 0
v 0.4 0.05 -0.1
v -0.3 -0.15 0.2
v -0.3 -0.05 0.2
v 0.2 -0.15 0.2
v 0.2 -0.05 0.2
v -0.4 -0.15 0.1
v -0.4 -0.05 0.1
v -0.3 -0.15 0.1
v -0.3 -0.05 0.1
v -0.3 0.05 0.1
v 0 -0.05 0.1
v 0 0.05 0.1
v 0.1 -0.05 0.1
v 0.1 0.05 0.1
v 0.2 -0.15 0.1
v 0.2 -0.05 0.1
v 0.3 -0.05 0.1
v 0.3 0.05 0.1
v 0.4 -0.15 0.1
v 0.4 -0.05 0.1
v -0.1 0.05 0
v -0.1 0.15 0
v 0 -0.05 0
v 0 0.05 0
v 0 0.15 0
v 0.1 -0.05 0
v 0.1 0.05 0
v 0.3 -0.05 0
v 0.3 0.05 0
v 0.4 -0.05 0
v 0.4 0.05 0
v -0.4 -0.15 -0.1
v -0.4 -0.05 -0.1
v -0.3 -0.15 -0.1
v -0.3 -0.05 -0.1
v -0.3 0.05 -0.1
v -0.2 -0.05 -0.1
v -0.2 0.05 -0.1
v -0.1 0.05 -0.1
v -0.1 0.15 -0.1
v 0 -0.05 -0.1
v 0 0.05 -0.1
v 0 0.15 -0.1
v 0.1 -0.05 -0.1
v 0.1 0.05 -0.1
v 0.3 -0.05 -0.1
v 0.3 0.05 -0.1
v 0.4 -0.05 -0.1
v 0.4 0.05 -0.1
v -0.3 -0.15 -0.2
v -0.3 -0.05 -0.2
v -0.2 -0.05 -0.2
v -0.2 0.05 -0.2
v 0 -0.05 -0.2
v 0 0.05 -0.2
v 0.1 -0.05 -0.2
v 0.1 0.05 -0.2
v 0.3 -0.05 -0.2
v 0.3 0.05 -0.2
v 0.4 -0.15 -0.2
v 0.4 -0.05 -0.2
v -0.3 -0.15 0.2
v 0.2 -0.15 0.2
v -0.4 -0.15 0.1
v -0.3 -0.15 0.1
v 0.2 -0.15 0.1
v 0.4 -0.15 0.1
v -0.4 -0.15 -0.1
v -0.3 -0.15 -0.1
v -0.3 -0.15 -0.2
v 0.4 -0.15 -0.2
v -0.3 -0.05 0.2
v 0.2 -0.05 0.2
v -0.4 -0.05 0.1
v -0.3 -0.05 0.1
v 0 -0.05 0.1
v 0.1 -0.05 0.1
v 0.2 -0.05 0.1
v 0.3 -0.05 0.1
v 0.4 -0.05 0.1
v 0 -0.05 0
v 0.1 -0.05 0
v 0.3 -0.05 0
v 0.4 -0.05 0
v -0.4 -0.05 -0.1
v -0.3 -0.05 -0.1
v -0.2 -0.05 -0.1
v 0 -0.05 -0.1
v 0.1 -0.05 -0.1
v 0.3 -0.05 -0.1
v 0.4 -0.05 -0.1
v -0.3 -0.05 -0.2
v -0.2 -0.05 -0.2
v 0 -0.05 -0.2
v 0.1 -0.05 -0.2
v 0.3 -0.05 -0.2
v 0.4 -0.05 -0.2
v -0.3 0.05 0.1
v 0 0.05 0.1
v 0.1 0.05 0.1
v 0.3 0.05 0.1
v -0.1 0.05 0
v 0 0.05 0
v 0.1 0.05 0
v 0.3 0.05 0
v 0.4 0.05 0
v -0.3 0.05 -0.1
v -0.2 0.05 -0.1
v -0.1 0.05 -0.1
v 0 0.05 -0.1
v 0.1 0.05 -0.1
v 0.3 0.05 -0.1
v 0.4 0.05 -0.1
v -0.2 0.05 -0.2
v 0 0.05 -0.2
v 0.1 0.05 -0.2
v 0.3 0.05 -0.2
v -0.1 0.15 0
v 0 0.15 0
v -0.1 0.15 -0.1
v 0 0.15 -0.1

# faces
f 3/1/1 2/1/1 1/1/1
f 4/1/1 2/1/1 3/1/1
f 9/1/1 6/1/1 5/1/1
f 10/1/1 6/1/1 9/1/1
f 11/1/1 8/1/1 7/1/1
f 12/1/1 8/1/1 11/1/1
f 13/2/1 11/2/1 10/2/1
f 14/2/1 11/2/1 13/2/1
f 17/2/1 16/2/1 15/2/1
f 18/2/1 16/2/1 17/2/1
f 21/2/1 20/2/1 19/2/1
f 22/2/1 20/2/1 21/2/1
f 27/2/1 24/2/1 23/2/1
f 28/2/1 24/2/1 27/2/1
f 29/2/1 26/2/1 25/2/1
f 30/2/1 26/2/1 29/2/1
f 31/2/2 32/2/2 35/2/2
f 35/2/2 32/2/2 36/2/2
f 33/2/2 34/2/2 37/2/2
f 37/2/2 34/2/2 38/2/2
f 36/2/2 37/2/2 39/2/2
f 39/2/2 37/2/2 40/2/2
f 41/1/2 42/1/2 43/1/2
f 43/1/2 42/1/2 44/1/2
f 45/2/2 46/2/2 49/2/2
f 49/2/2 46/2/2 50/2/2
f 47/2/2 48/2/2 51/2/2
f 51/2/2 48/2/2 52/2/2
f 53/1/2 54/1/2 55/1/2
f 55/1/2 54/1/2 56/1/2
f 56/1/2 54/1/2 57/1/2
f 57/1/2 54/1/2 58/1/2
f 56/2/2 57/2/2 59/2/2
f 59/2/2 57/2/2 60/2/2
f 63/1/3 62/1/3 61/1/3
f 64/1/3 62/1/3 63/1/3
f 67/1/3 66/1/3 65/1/3
f 68/1/3 66/1/3 67/1/3
f 70/2/3 69/2/3 68/2/3
f 71/2/3 69/2/3 70/2/3
f 75/2/3 73/2/3 72/2/3
f 76/2/3 73/2/3 75/2/3
f 76/1/3 75/1/3 74/1/3
f 77/2/3 73/2/3 76/2/3
f 78/1/3 76/1/3 74/1/3
f 79/1/3 76/1/3 78/1/3
f 83/2/3 81/2/3 80/2/3
f 84/2/3 81/2/3 83/2/3
f 85/3/3 83/3/3 82/3/3
f 86/3/3 83/3/3 85/3/3
f 89/2/3 88/2/3 87/2/3
f 90/2/3 88/2/3 89/2/3
f 91/1/4 92/1/4 93/1/4
f 93/1/4 92/1/4 94/1/4
f 94/2/4 95/2/4 96/2/4
f 96/2/4 95/2/4 97/2/4
f 98/2/4 99/2/4 101/2/4
f 101/2/4 99/2/4 102/2/4
f 100/3/4 101/3/4 103/3/4
f 103/3/4 101/3/4 104/3/4
f 105/2/4 106/2/4 107/2/4
f 107/2/4 106/2/4 108/2/4
f 109/1/4 110/1/4 111/1/4
f 109/1/4 111/1/4 113/1/4
f 111/2/4 112/2/4 113/2/4
f 113/2/4 112/2/4 114/2/4
f 109/1/4 113/1/4 115/1/4
f 109/1/4 115/1/4 117/1/4
f 115/2/4 116/2/4 117/2/4
f 117/2/4 116/2/4 118/2/4
f 109/1/4 117/1/4 119/1/4
f 119/1/4 117/1/4 120/1/4
f 124/1/5 122/1/5 121/1/5
f 125/1/5 122/1/5 124/1/5
f 127/1/5 124/1/5 123/1/5
f 127/1/5 126/1/5 125/1/5
f 127/1/5 125/1/5 124/1/5
f 128/1/5 126/1/5 127/1/5
f 129/1/5 126/1/5 128/1/5
f 130/1/5 126/1/5 129/1/5
f 131/1/6 132/1/6 134/1/6
f 134/1/6 132/1/6 135/1/6
f 135/1/6 132/1/6 136/1/6
f 136/1/6 132/1/6 137/1/6
f 135/1/6 136/1/6 140/1/6
f 140/1/6 136/1/6 141/1/6
f 138/1/6 139/1/6 142/1/6
f 142/1/6 139/1/6 143/1/6
f 133/1/6 134/1/6 144/1/6
f 144/1/6 134/1/6 145/1/6
f 145/1/6 146/1/6 151/1/6
f 151/1/6 146/1/6 152/1/6
f 147/1/6 148/1/6 153/1/6
f 153/1/6 148/1/6 154/1/6
f 149/1/6 150/1/6 155/1/6
f 155/1/6 150/1/6 156/1/6
f 157/2/6 158/2/6 161/2/6
f 161/2/6 158/2/6 162/2/6
f 159/2/6 160/2/6 163/2/6
f 163/2/6 160/2/6 164/2/6
f 157/2/6 161/2/6 166/2/6
f 166/2/6 161/2/6 167/2/6
f 167/2/6 161/2/6 168/2/6
f 162/3/6 163/3/6 169/3/6
f 164/2/6 165/2/6 170/2/6
f 163/2/6 164/2/6 170/2/6
f 169/3/6 163/3/6 170/3/6
f 170/2/6 165/2/6 171/2/6
f 171/2/6 165/2/6 172/2/6
f 168/2/6 169/2/6 173/2/6
f 167/2/6 168/2/6 173/2/6
f 173/2/6 169/2/6 174/2/6
f 170/2/6 171/2/6 175/2/6
f 175/2/6 171/2/6 176/2/6
f 177/2/6 178/2/6 179/2/6
f 179/2/6 178/2/6 180/2/6
