# MagicaVoxel @ Ephtracy

# group
o L_Arm

# material
mtllib Circuit B - Character-2-L_Arm.mtl
usemtl palette

# normals
vn -1 0 0
vn 1 0 0
vn 0 0 1
vn 0 0 -1
vn 0 -1 0
vn 0 1 0

# texcoords
vt 0.642578 0.5
vt 0.650391 0.5

# verts
v -0.15 -0.25 0.15
v -0.15 -0.25 -0.15
v -0.15 -0.15 0.05
v -0.15 -0.15 -0.15
v -0.15 -0.05 0.15
v -0.15 -0.05 0.05
v -0.15 0.25 0.05
v -0.15 0.25 -0.15
v -0.05 -0.05 0.15
v -0.05 -0.05 0.05
v -0.05 0.15 0.15
v -0.05 0.15 0.05
v 0.05 -0.05 0.15
v 0.05 -0.05 0.05
v 0.05 0.15 0.15
v 0.05 0.15 0.05
v 0.15 -0.25 0.15
v 0.15 -0.25 -0.15
v 0.15 -0.15 0.05
v 0.15 -0.15 -0.15
v 0.15 -0.05 0.15
v 0.15 -0.05 0.05
v 0.15 0.25 0.05
v 0.15 0.25 -0.15
v -0.15 -0.25 0.15
v -0.15 -0.05 0.15
v -0.05 -0.05 0.15
v -0.05 0.15 0.15
v 0.05 -0.05 0.15
v 0.05 0.15 0.15
v 0.15 -0.25 0.15
v 0.15 -0.05 0.15
v -0.15 -0.05 0.05
v -0.15 0.25 0.05
v -0.05 -0.05 0.05
v -0.05 0.15 0.05
v 0.05 -0.05 0.05
v 0.05 0.15 0.05
v 0.15 -0.05 0.05
v 0.15 0.25 0.05
v -0.15 -0.25 -0.15
v -0.15 -0.15 -0.15
v -0.15 0.25 -0.15
v 0.15 -0.25 -0.15
v 0.15 -0.15 -0.15
v 0.15 0.25 -0.15
v -0.15 -0.25 0.15
v 0.15 -0.25 0.15
v -0.15 -0.25 -0.15
v 0.15 -0.25 -0.15
v -0.15 -0.05 0.15
v -0.05 -0.05 0.15
v 0.05 -0.05 0.15
v 0.15 -0.05 0.15
v -0.15 -0.05 0.05
v -0.05 -0.05 0.05
v 0.05 -0.05 0.05
v 0.15 -0.05 0.05
v -0.05 0.15 0.15
v 0.05 0.15 0.15
v -0.05 0.15 0.05
v 0.05 0.15 0.05
v -0.15 0.25 0.05
v 0.15 0.25 0.05
v -0.15 0.25 -0.15
v 0.15 0.25 -0.15

# faces
f 3/1/1 2/1/1 1/1/1
f 4/1/1 2/1/1 3/1/1
f 5/1/1 3/1/1 1/1/1
f 6/2/1 4/2/1 3/2/1
f 6/1/1 3/1/1 5/1/1
f 7/2/1 4/2/1 6/2/1
f 8/2/1 4/2/1 7/2/1
f 11/1/1 10/1/1 9/1/1
f 12/1/1 10/1/1 11/1/1
f 13/1/2 14/1/2 15/1/2
f 15/1/2 14/1/2 16/1/2
f 17/1/2 18/1/2 19/1/2
f 19/1/2 18/1/2 20/1/2
f 17/1/2 19/1/2 21/1/2
f 19/2/2 20/2/2 22/2/2
f 21/1/2 19/1/2 22/1/2
f 22/2/2 20/2/2 23/2/2
f 23/2/2 20/2/2 24/2/2
f 27/1/3 26/1/3 25/1/3
f 29/1/3 27/1/3 25/1/3
f 29/1/3 28/1/3 27/1/3
f 30/1/3 28/1/3 29/1/3
f 31/1/3 29/1/3 25/1/3
f 32/1/3 29/1/3 31/1/3
f 35/2/3 34/2/3 33/2/3
f 36/2/3 34/2/3 35/2/3
f 38/2/3 34/2/3 36/2/3
f 39/2/3 38/2/3 37/2/3
f 40/2/3 34/2/3 38/2/3
f 40/2/3 38/2/3 39/2/3
f 41/1/4 42/1/4 44/1/4
f 42/2/4 43/2/4 45/2/4
f 44/1/4 42/1/4 45/1/4
f 45/2/4 43/2/4 46/2/4
f 49/1/5 48/1/5 47/1/5
f 50/1/5 48/1/5 49/1/5
f 51/1/6 52/1/6 55/1/6
f 55/1/6 52/1/6 56/1/6
f 53/1/6 54/1/6 57/1/6
f 57/1/6 54/1/6 58/1/6
f 59/1/6 60/1/6 61/1/6
f 61/1/6 60/1/6 62/1/6
f 63/2/6 64/2/6 65/2/6
f 65/2/6 64/2/6 66/2/6
