# MagicaVoxel @ Ephtracy

# group
o Spine2

# material
mtllib Circuit B - Character-16-Spine2.mtl
usemtl palette

# normals
vn -1 0 0
vn 1 0 0
vn 0 0 1
vn 0 0 -1
vn 0 -1 0
vn 0 1 0

# texcoords
vt 0.642578 0.5
vt 0.650391 0.5
vt 0.666016 0.5
vt 0.669922 0.5
vt 0.833984 0.5
vt 0.837891 0.5

# verts
v -0.3 -0.3 0.3
v -0.3 -0.3 -0.3
v -0.3 -0.2 0.3
v -0.3 -0.2 0.1
v -0.3 -0.2 -0.3
v -0.3 0 0.3
v -0.3 0 0.1
v -0.3 0 -0.3
v -0.3 0.1 0.3
v -0.3 0.1 -0.3
v -0.3 0.2 0.3
v -0.3 0.2 0.2
v -0.3 0.2 -0.2
v -0.3 0.2 -0.3
v -0.3 0.3 0.2
v -0.3 0.3 -0.2
v -0.2 -0.3 0.4
v -0.2 -0.3 0.3
v -0.2 -0.3 -0.3
v -0.2 -0.3 -0.4
v -0.2 -0.2 0.3
v -0.2 -0.2 -0.3
v -0.2 0 0.4
v -0.2 0 0.3
v -0.2 0 -0.3
v -0.2 0 -0.4
v -0.2 0.1 0.3
v -0.2 0.1 -0.3
v -0.2 0.2 0.4
v -0.2 0.2 0.3
v -0.2 0.2 0.2
v -0.2 0.2 -0.2
v -0.2 0.2 -0.3
v -0.2 0.2 -0.4
v -0.2 0.3 0.3
v -0.2 0.3 0.2
v -0.2 0.3 -0.2
v -0.2 0.3 -0.3
v -0.1 0 0.5
v -0.1 0 0.4
v -0.1 0 -0.4
v -0.1 0 -0.5
v -0.1 0.2 0.5
v -0.1 0.2 0.4
v -0.1 0.2 -0.4
v -0.1 0.2 -0.5
v 0.1 -0.3 0.4
v 0.1 -0.3 0.3
v 0.1 -0.3 -0.3
v 0.1 -0.3 -0.4
v 0.1 -0.1 0.4
v 0.1 -0.1 0.3
v 0.1 -0.1 -0.3
v 0.1 -0.1 -0.4
v 0.1 0 0.5
v 0.1 0 0.4
v 0.1 0 -0.4
v 0.1 0 -0.5
v 0.1 0.2 0.5
v 0.1 0.2 0.4
v 0.1 0.2 0.3
v 0.1 0.2 0.2
v 0.1 0.2 -0.2
v 0.1 0.2 -0.3
v 0.1 0.2 -0.4
v 0.1 0.2 -0.5
v 0.1 0.3 0.3
v 0.1 0.3 0.2
v 0.1 0.3 -0.2
v 0.1 0.3 -0.3
v 0.2 0.2 0.2
v 0.2 0.2 -0.2
v 0.2 0.3 0.2
v 0.2 0.3 -0.2
v 0.3 -0.3 0.3
v 0.3 -0.3 -0.3
v 0.3 0.2 0.3
v 0.3 0.2 -0.3
v -0.1 0 0.5
v -0.1 0.2 0.5
v 0.1 0 0.5
v 0.1 0.2 0.5
v -0.2 -0.3 0.4
v -0.2 0 0.4
v -0.2 0.2 0.4
v -0.1 -0.3 0.4
v -0.1 -0.1 0.4
v -0.1 0 0.4
v -0.1 0.2 0.4
v 0.1 -0.3 0.4
v 0.1 -0.1 0.4
v 0.1 0 0.4
v -0.3 -0.3 0.3
v -0.3 -0.2 0.3
v -0.3 0 0.3
v -0.3 0.1 0.3
v -0.3 0.2 0.3
v -0.2 -0.3 0.3
v -0.2 -0.2 0.3
v -0.2 0 0.3
v -0.2 0.1 0.3
v -0.2 0.2 0.3
v -0.2 0.3 0.3
v 0.1 -0.3 0.3
v 0.1 -0.1 0.3
v 0.1 0.2 0.3
v 0.1 0.3 0.3
v 0.3 -0.3 0.3
v 0.3 0.2 0.3
v -0.3 0.2 0.2
v -0.3 0.3 0.2
v -0.2 0.2 0.2
v -0.2 0.3 0.2
v 0.1 0.2 0.2
v 0.1 0.3 0.2
v 0.2 0.2 0.2
v 0.2 0.3 0.2
v -0.3 0.2 -0.2
v -0.3 0.3 -0.2
v -0.2 0.2 -0.2
v -0.2 0.3 -0.2
v 0.1 0.2 -0.2
v 0.1 0.3 -0.2
v 0.2 0.2 -0.2
v 0.2 0.3 -0.2
v -0.3 -0.3 -0.3
v -0.3 -0.2 -0.3
v -0.3 0 -0.3
v -0.3 0.1 -0.3
v -0.3 0.2 -0.3
v -0.2 -0.3 -0.3
v -0.2 -0.2 -0.3
v -0.2 0 -0.3
v -0.2 0.1 -0.3
v -0.2 0.2 -0.3
v -0.2 0.3 -0.3
v 0.1 -0.3 -0.3
v 0.1 -0.1 -0.3
v 0.1 0.2 -0.3
v 0.1 0.3 -0.3
v 0.3 -0.3 -0.3
v 0.3 0.2 -0.3
v -0.2 -0.3 -0.4
v -0.2 0 -0.4
v -0.2 0.2 -0.4
v -0.1 -0.3 -0.4
v -0.1 -0.1 -0.4
v -0.1 0 -0.4
v -0.1 0.2 -0.4
v 0.1 -0.3 -0.4
v 0.1 -0.1 -0.4
v 0.1 0 -0.4
v -0.1 0 -0.5
v -0.1 0.2 -0.5
v 0.1 0 -0.5
v 0.1 0.2 -0.5
v -0.2 -0.3 0.4
v -0.1 -0.3 0.4
v 0.1 -0.3 0.4
v -0.3 -0.3 0.3
v -0.2 -0.3 0.3
v -0.1 -0.3 0.3
v 0.1 -0.3 0.3
v 0.3 -0.3 0.3
v -0.3 -0.3 -0.3
v -0.2 -0.3 -0.3
v -0.1 -0.3 -0.3
v 0.1 -0.3 -0.3
v 0.3 -0.3 -0.3
v -0.2 -0.3 -0.4
v -0.1 -0.3 -0.4
v 0.1 -0.3 -0.4
v -0.1 0 0.5
v 0.1 0 0.5
v -0.1 0 0.4
v 0.1 0 0.4
v -0.1 0 -0.4
v 0.1 0 -0.4
v -0.1 0 -0.5
v 0.1 0 -0.5
v -0.1 0.2 0.5
v 0.1 0.2 0.5
v -0.2 0.2 0.4
v -0.1 0.2 0.4
v 0.1 0.2 0.4
v -0.3 0.2 0.3
v -0.2 0.2 0.3
v 0.1 0.2 0.3
v 0.3 0.2 0.3
v -0.3 0.2 0.2
v -0.2 0.2 0.2
v 0.1 0.2 0.2
v 0.2 0.2 0.2
v -0.3 0.2 -0.2
v -0.2 0.2 -0.2
v 0.1 0.2 -0.2
v 0.2 0.2 -0.2
v -0.3 0.2 -0.3
v -0.2 0.2 -0.3
v 0.1 0.2 -0.3
v 0.3 0.2 -0.3
v -0.2 0.2 -0.4
v -0.1 0.2 -0.4
v 0.1 0.2 -0.4
v -0.1 0.2 -0.5
v 0.1 0.2 -0.5
v -0.2 0.3 0.3
v 0.1 0.3 0.3
v -0.3 0.3 0.2
v -0.2 0.3 0.2
v 0.1 0.3 0.2
v 0.2 0.3 0.2
v -0.3 0.3 -0.2
v -0.2 0.3 -0.2
v 0.1 0.3 -0.2
v 0.2 0.3 -0.2
v -0.2 0.3 -0.3
v 0.1 0.3 -0.3

# faces
f 3/5/1 2/5/1 1/5/1
f 4/5/1 2/5/1 3/5/1
f 5/5/1 2/5/1 4/5/1
f 6/3/1 4/3/1 3/3/1
f 7/4/1 5/4/1 4/4/1
f 7/3/1 4/3/1 6/3/1
f 8/4/1 5/4/1 7/4/1
f 9/5/1 7/5/1 6/5/1
f 9/5/1 8/5/1 7/5/1
f 10/5/1 8/5/1 9/5/1
f 11/2/1 10/2/1 9/2/1
f 12/2/1 10/2/1 11/2/1
f 13/2/1 10/2/1 12/2/1
f 14/2/1 10/2/1 13/2/1
f 15/6/1 13/6/1 12/6/1
f 16/6/1 13/6/1 15/6/1
f 21/5/1 18/5/1 17/5/1
f 22/5/1 20/5/1 19/5/1
f 23/5/1 21/5/1 17/5/1
f 24/5/1 21/5/1 23/5/1
f 25/5/1 20/5/1 22/5/1
f 26/5/1 20/5/1 25/5/1
f 27/1/1 24/1/1 23/1/1
f 28/1/1 26/1/1 25/1/1
f 29/1/1 27/1/1 23/1/1
f 30/1/1 27/1/1 29/1/1
f 33/1/1 26/1/1 28/1/1
f 34/1/1 26/1/1 33/1/1
f 35/6/1 31/6/1 30/6/1
f 36/6/1 31/6/1 35/6/1
f 37/6/1 33/6/1 32/6/1
f 38/6/1 33/6/1 37/6/1
f 43/6/1 40/6/1 39/6/1
f 44/6/1 40/6/1 43/6/1
f 45/6/1 42/6/1 41/6/1
f 46/6/1 42/6/1 45/6/1
f 47/2/2 48/2/2 51/2/2
f 51/2/2 48/2/2 52/2/2
f 49/2/2 50/2/2 53/2/2
f 53/2/2 50/2/2 54/2/2
f 51/1/2 52/1/2 56/1/2
f 53/1/2 54/1/2 57/1/2
f 55/6/2 56/6/2 59/6/2
f 56/1/2 52/1/2 60/1/2
f 59/6/2 56/6/2 60/6/2
f 60/1/2 52/1/2 61/1/2
f 53/1/2 57/1/2 64/1/2
f 57/6/2 58/6/2 65/6/2
f 64/1/2 57/1/2 65/1/2
f 65/6/2 58/6/2 66/6/2
f 61/6/2 62/6/2 67/6/2
f 67/6/2 62/6/2 68/6/2
f 63/6/2 64/6/2 69/6/2
f 69/6/2 64/6/2 70/6/2
f 71/6/2 72/6/2 73/6/2
f 73/6/2 72/6/2 74/6/2
f 75/6/2 76/6/2 77/6/2
f 77/6/2 76/6/2 78/6/2
f 81/6/3 80/6/3 79/6/3
f 82/6/3 80/6/3 81/6/3
f 86/5/3 84/5/3 83/5/3
f 87/5/3 84/5/3 86/5/3
f 88/1/3 85/1/3 84/1/3
f 88/5/3 84/5/3 87/5/3
f 89/1/3 85/1/3 88/1/3
f 90/2/3 87/2/3 86/2/3
f 91/1/3 88/1/3 87/1/3
f 91/2/3 87/2/3 90/2/3
f 92/1/3 88/1/3 91/1/3
f 98/5/3 94/5/3 93/5/3
f 99/3/3 95/3/3 94/3/3
f 99/5/3 94/5/3 98/5/3
f 100/5/3 96/5/3 95/5/3
f 100/3/3 95/3/3 99/3/3
f 101/2/3 97/2/3 96/2/3
f 101/5/3 96/5/3 100/5/3
f 102/2/3 97/2/3 101/2/3
f 106/6/3 103/6/3 102/6/3
f 107/6/3 103/6/3 106/6/3
f 108/6/3 105/6/3 104/6/3
f 108/6/3 106/6/3 105/6/3
f 109/6/3 106/6/3 108/6/3
f 112/6/3 111/6/3 110/6/3
f 113/6/3 111/6/3 112/6/3
f 116/6/3 115/6/3 114/6/3
f 117/6/3 115/6/3 116/6/3
f 118/6/4 119/6/4 120/6/4
f 120/6/4 119/6/4 121/6/4
f 122/6/4 123/6/4 124/6/4
f 124/6/4 123/6/4 125/6/4
f 126/5/4 127/5/4 131/5/4
f 127/4/4 128/4/4 132/4/4
f 131/5/4 127/5/4 132/5/4
f 128/5/4 129/5/4 133/5/4
f 132/4/4 128/4/4 133/4/4
f 129/2/4 130/2/4 134/2/4
f 133/5/4 129/5/4 134/5/4
f 134/2/4 130/2/4 135/2/4
f 135/6/4 136/6/4 139/6/4
f 139/6/4 136/6/4 140/6/4
f 137/6/4 138/6/4 141/6/4
f 138/6/4 139/6/4 141/6/4
f 141/6/4 139/6/4 142/6/4
f 143/5/4 144/5/4 146/5/4
f 146/5/4 144/5/4 147/5/4
f 144/1/4 145/1/4 148/1/4
f 147/5/4 144/5/4 148/5/4
f 148/1/4 145/1/4 149/1/4
f 146/2/4 147/2/4 150/2/4
f 147/1/4 148/1/4 151/1/4
f 150/2/4 147/2/4 151/2/4
f 151/1/4 148/1/4 152/1/4
f 153/6/4 154/6/4 155/6/4
f 155/6/4 154/6/4 156/6/4
f 161/5/5 158/5/5 157/5/5
f 162/2/5 159/2/5 158/2/5
f 162/5/5 158/5/5 161/5/5
f 163/2/5 159/2/5 162/2/5
f 165/5/5 161/5/5 160/5/5
f 166/2/5 162/2/5 161/2/5
f 166/5/5 161/5/5 165/5/5
f 166/2/5 163/2/5 162/2/5
f 167/2/5 163/2/5 166/2/5
f 168/6/5 164/6/5 163/6/5
f 168/2/5 163/2/5 167/2/5
f 169/6/5 164/6/5 168/6/5
f 170/5/5 167/5/5 166/5/5
f 171/2/5 168/2/5 167/2/5
f 171/5/5 167/5/5 170/5/5
f 172/2/5 168/2/5 171/2/5
f 175/6/5 174/6/5 173/6/5
f 176/6/5 174/6/5 175/6/5
f 179/6/5 178/6/5 177/6/5
f 180/6/5 178/6/5 179/6/5
f 181/6/6 182/6/6 184/6/6
f 184/6/6 182/6/6 185/6/6
f 183/1/6 184/1/6 187/1/6
f 184/1/6 185/1/6 187/1/6
f 187/1/6 185/1/6 188/1/6
f 186/2/6 187/2/6 190/2/6
f 190/2/6 187/2/6 191/2/6
f 188/6/6 189/6/6 192/6/6
f 192/6/6 189/6/6 193/6/6
f 193/6/6 189/6/6 197/6/6
f 194/2/6 195/2/6 198/2/6
f 198/2/6 195/2/6 199/2/6
f 196/6/6 197/6/6 200/6/6
f 197/6/6 189/6/6 201/6/6
f 200/6/6 197/6/6 201/6/6
f 199/1/6 200/1/6 202/1/6
f 202/1/6 200/1/6 203/1/6
f 203/1/6 200/1/6 204/1/6
f 203/6/6 204/6/6 205/6/6
f 205/6/6 204/6/6 206/6/6
f 207/6/6 208/6/6 210/6/6
f 210/6/6 208/6/6 211/6/6
f 209/6/6 210/6/6 213/6/6
f 211/6/6 212/6/6 213/6/6
f 210/6/6 211/6/6 213/6/6
f 213/6/6 212/6/6 214/6/6
f 214/6/6 212/6/6 215/6/6
f 215/6/6 212/6/6 216/6/6
f 214/6/6 215/6/6 217/6/6
f 217/6/6 215/6/6 218/6/6
