# MagicaVoxel @ Ephtracy

# group
o L_Thigh

# material
mtllib Circuit B - Character-5-L_Thigh.mtl
usemtl palette

# normals
vn -1 0 0
vn 1 0 0
vn 0 0 1
vn 0 0 -1
vn 0 -1 0
vn 0 1 0

# texcoords
vt 0.642578 0.5
vt 0.650391 0.5
vt 0.837891 0.5

# verts
v -0.15 -0.25 0.05
v -0.15 -0.25 -0.15
v -0.15 0.05 0.05
v -0.15 0.05 -0.15
v -0.15 0.15 0.05
v -0.15 0.15 -0.15
v -0.05 -0.25 0.15
v -0.05 -0.25 0.05
v -0.05 0.05 0.05
v -0.05 0.15 0.15
v -0.05 0.15 0.05
v -0.05 0.15 -0.15
v -0.05 0.25 0.05
v -0.05 0.25 -0.15
v 0.05 -0.25 0.15
v 0.05 -0.25 0.05
v 0.05 0.05 0.05
v 0.05 0.15 0.15
v 0.05 0.15 0.05
v 0.15 -0.25 0.05
v 0.15 -0.25 -0.15
v 0.15 0.05 0.05
v 0.15 0.05 -0.15
v 0.15 0.15 0.05
v 0.15 0.15 -0.15
v 0.15 0.25 0.05
v 0.15 0.25 -0.15
v -0.05 -0.25 0.15
v -0.05 0.15 0.15
v 0.05 -0.25 0.15
v 0.05 0.15 0.15
v -0.15 -0.25 0.05
v -0.15 0.05 0.05
v -0.15 0.15 0.05
v -0.05 -0.25 0.05
v -0.05 0.05 0.05
v -0.05 0.15 0.05
v -0.05 0.25 0.05
v 0.05 -0.25 0.05
v 0.05 0.05 0.05
v 0.05 0.15 0.05
v 0.15 -0.25 0.05
v 0.15 0.05 0.05
v 0.15 0.15 0.05
v 0.15 0.25 0.05
v -0.15 -0.25 -0.15
v -0.15 0.05 -0.15
v -0.15 0.15 -0.15
v -0.05 0.15 -0.15
v -0.05 0.25 -0.15
v 0.15 -0.25 -0.15
v 0.15 0.05 -0.15
v 0.15 0.15 -0.15
v 0.15 0.25 -0.15
v -0.05 -0.25 0.15
v 0.05 -0.25 0.15
v -0.15 -0.25 0.05
v -0.05 -0.25 0.05
v 0.05 -0.25 0.05
v 0.15 -0.25 0.05
v -0.15 -0.25 -0.15
v 0.15 -0.25 -0.15
v -0.05 0.15 0.15
v 0.05 0.15 0.15
v -0.15 0.15 0.05
v -0.05 0.15 0.05
v 0.05 0.15 0.05
v -0.15 0.15 -0.15
v -0.05 0.15 -0.15
v -0.05 0.25 0.05
v 0.15 0.25 0.05
v -0.05 0.25 -0.15
v 0.15 0.25 -0.15

# faces
f 3/2/1 2/2/1 1/2/1
f 4/2/1 2/2/1 3/2/1
f 5/1/1 4/1/1 3/1/1
f 6/1/1 4/1/1 5/1/1
f 9/1/1 8/1/1 7/1/1
f 10/1/1 9/1/1 7/1/1
f 11/1/1 9/1/1 10/1/1
f 13/3/1 12/3/1 11/3/1
f 14/3/1 12/3/1 13/3/1
f 15/1/2 16/1/2 17/1/2
f 15/1/2 17/1/2 18/1/2
f 18/1/2 17/1/2 19/1/2
f 20/2/2 21/2/2 22/2/2
f 22/2/2 21/2/2 23/2/2
f 22/1/2 23/1/2 24/1/2
f 24/1/2 23/1/2 25/1/2
f 24/3/2 25/3/2 26/3/2
f 26/3/2 25/3/2 27/3/2
f 30/1/3 29/1/3 28/1/3
f 31/1/3 29/1/3 30/1/3
f 35/2/3 33/2/3 32/2/3
f 36/1/3 34/1/3 33/1/3
f 36/2/3 33/2/3 35/2/3
f 37/1/3 34/1/3 36/1/3
f 41/3/3 38/3/3 37/3/3
f 42/2/3 40/2/3 39/2/3
f 43/1/3 41/1/3 40/1/3
f 43/2/3 40/2/3 42/2/3
f 44/3/3 38/3/3 41/3/3
f 44/1/3 41/1/3 43/1/3
f 45/3/3 38/3/3 44/3/3
f 47/1/4 48/1/4 49/1/4
f 46/2/4 47/2/4 51/2/4
f 47/1/4 49/1/4 52/1/4
f 51/2/4 47/2/4 52/2/4
f 49/3/4 50/3/4 53/3/4
f 52/1/4 49/1/4 53/1/4
f 53/3/4 50/3/4 54/3/4
f 58/1/5 56/1/5 55/1/5
f 59/1/5 56/1/5 58/1/5
f 61/2/5 58/2/5 57/2/5
f 61/2/5 60/2/5 59/2/5
f 61/2/5 59/2/5 58/2/5
f 62/2/5 60/2/5 61/2/5
f 63/1/6 64/1/6 66/1/6
f 66/1/6 64/1/6 67/1/6
f 65/1/6 66/1/6 68/1/6
f 68/1/6 66/1/6 69/1/6
f 70/3/6 71/3/6 72/3/6
f 72/3/6 71/3/6 73/3/6
