# MagicaVoxel @ Ephtracy

# group
o R_Arm

# material
mtllib Circuit B - Character-11-R_Arm.mtl
usemtl palette

# normals
vn -1 0 0
vn 1 0 0
vn 0 0 1
vn 0 0 -1
vn 0 -1 0
vn 0 1 0

# texcoords
vt 0.642578 0.5
vt 0.650391 0.5

# verts
v -0.15 -0.25 0.15
v -0.15 -0.25 -0.15
v -0.15 -0.15 0.15
v -0.15 -0.15 -0.05
v -0.15 -0.05 -0.05
v -0.15 -0.05 -0.15
v -0.15 0.25 0.15
v -0.15 0.25 -0.05
v -0.05 -0.05 -0.05
v -0.05 -0.05 -0.15
v -0.05 0.15 -0.05
v -0.05 0.15 -0.15
v 0.05 -0.05 -0.05
v 0.05 -0.05 -0.15
v 0.05 0.15 -0.05
v 0.05 0.15 -0.15
v 0.15 -0.25 0.15
v 0.15 -0.25 -0.15
v 0.15 -0.05 0.15
v 0.15 -0.05 -0.05
v 0.15 -0.05 -0.15
v 0.15 0.25 0.15
v 0.15 0.25 -0.05
v -0.15 -0.25 0.15
v -0.15 -0.15 0.15
v -0.15 0.25 0.15
v 0.05 -0.15 0.15
v 0.05 -0.05 0.15
v 0.15 -0.25 0.15
v 0.15 -0.05 0.15
v 0.15 0.25 0.15
v -0.15 -0.05 -0.05
v -0.15 0.25 -0.05
v -0.05 -0.05 -0.05
v -0.05 0.15 -0.05
v 0.05 -0.05 -0.05
v 0.05 0.15 -0.05
v 0.15 -0.05 -0.05
v 0.15 0.25 -0.05
v -0.15 -0.25 -0.15
v -0.15 -0.05 -0.15
v -0.05 -0.05 -0.15
v -0.05 0.15 -0.15
v 0.05 -0.05 -0.15
v 0.05 0.15 -0.15
v 0.15 -0.25 -0.15
v 0.15 -0.05 -0.15
v -0.15 -0.25 0.15
v 0.15 -0.25 0.15
v -0.15 -0.25 -0.15
v 0.15 -0.25 -0.15
v -0.15 -0.05 -0.05
v -0.05 -0.05 -0.05
v 0.05 -0.05 -0.05
v 0.15 -0.05 -0.05
v -0.15 -0.05 -0.15
v -0.05 -0.05 -0.15
v 0.05 -0.05 -0.15
v 0.15 -0.05 -0.15
v -0.05 0.15 -0.05
v 0.05 0.15 -0.05
v -0.05 0.15 -0.15
v 0.05 0.15 -0.15
v -0.15 0.25 0.15
v 0.15 0.25 0.15
v -0.15 0.25 -0.05
v 0.15 0.25 -0.05

# faces
f 3/1/1 2/1/1 1/1/1
f 4/1/1 2/1/1 3/1/1
f 5/2/1 4/2/1 3/2/1
f 5/1/1 2/1/1 4/1/1
f 6/1/1 2/1/1 5/1/1
f 7/2/1 5/2/1 3/2/1
f 8/2/1 5/2/1 7/2/1
f 11/1/1 10/1/1 9/1/1
f 12/1/1 10/1/1 11/1/1
f 13/1/2 14/1/2 15/1/2
f 15/1/2 14/1/2 16/1/2
f 17/1/2 18/1/2 19/1/2
f 19/1/2 18/1/2 20/1/2
f 20/1/2 18/1/2 21/1/2
f 19/2/2 20/2/2 22/2/2
f 22/2/2 20/2/2 23/2/2
f 27/1/3 25/1/3 24/1/3
f 27/2/3 26/2/3 25/2/3
f 28/2/3 26/2/3 27/2/3
f 29/1/3 27/1/3 24/1/3
f 29/1/3 28/1/3 27/1/3
f 30/2/3 26/2/3 28/2/3
f 30/1/3 28/1/3 29/1/3
f 31/2/3 26/2/3 30/2/3
f 32/2/4 33/2/4 34/2/4
f 34/2/4 33/2/4 35/2/4
f 35/2/4 33/2/4 37/2/4
f 36/2/4 37/2/4 38/2/4
f 37/2/4 33/2/4 39/2/4
f 38/2/4 37/2/4 39/2/4
f 40/1/4 41/1/4 42/1/4
f 40/1/4 42/1/4 44/1/4
f 42/1/4 43/1/4 44/1/4
f 44/1/4 43/1/4 45/1/4
f 40/1/4 44/1/4 46/1/4
f 46/1/4 44/1/4 47/1/4
f 50/1/5 49/1/5 48/1/5
f 51/1/5 49/1/5 50/1/5
f 52/1/6 53/1/6 56/1/6
f 56/1/6 53/1/6 57/1/6
f 54/1/6 55/1/6 58/1/6
f 58/1/6 55/1/6 59/1/6
f 60/1/6 61/1/6 62/1/6
f 62/1/6 61/1/6 63/1/6
f 64/2/6 65/2/6 66/2/6
f 66/2/6 65/2/6 67/2/6
