# MagicaVoxel @ Ephtracy

# group
o R_Hand

# material
mtllib Circuit B - Character-10-R_Hand.mtl
usemtl palette

# normals
vn -1 0 0
vn 1 0 0
vn 0 0 1
vn 0 0 -1
vn 0 -1 0
vn 0 1 0

# texcoords
vt 0.646484 0.5
vt 0.650391 0.5

# verts
v -0.1 -0.1 0.1
v -0.1 -0.1 -0.1
v -0.1 0 0.1
v -0.1 0 0
v -0.1 0.1 0.1
v -0.1 0.1 0
v -0.1 0.1 -0.1
v 0.1 -0.1 0.1
v 0.1 -0.1 0
v 0.1 -0.1 -0.1
v 0.1 0.1 0.1
v 0.1 0.1 0
v 0.1 0.1 -0.1
v -0.1 -0.1 0.1
v -0.1 0 0.1
v -0.1 0.1 0.1
v 0 -0.1 0.1
v 0 0 0.1
v 0.1 -0.1 0.1
v 0.1 0.1 0.1
v -0.1 -0.1 -0.1
v -0.1 0.1 -0.1
v 0.1 -0.1 -0.1
v 0.1 0.1 -0.1
v -0.1 -0.1 0.1
v 0 -0.1 0.1
v 0.1 -0.1 0.1
v 0 -0.1 0
v 0.1 -0.1 0
v -0.1 -0.1 -0.1
v 0.1 -0.1 -0.1
v -0.1 0.1 0.1
v 0.1 0.1 0.1
v -0.1 0.1 0
v 0.1 0.1 0
v -0.1 0.1 -0.1
v 0.1 0.1 -0.1

# faces
f 3/1/1 2/1/1 1/1/1
f 4/1/1 2/1/1 3/1/1
f 5/2/1 4/2/1 3/2/1
f 6/1/1 2/1/1 4/1/1
f 6/2/1 4/2/1 5/2/1
f 7/1/1 2/1/1 6/1/1
f 8/2/2 9/2/2 11/2/2
f 9/1/2 10/1/2 12/1/2
f 11/2/2 9/2/2 12/2/2
f 12/1/2 10/1/2 13/1/2
f 17/1/3 15/1/3 14/1/3
f 18/2/3 16/2/3 15/2/3
f 18/1/3 15/1/3 17/1/3
f 19/2/3 18/2/3 17/2/3
f 20/2/3 16/2/3 18/2/3
f 20/2/3 18/2/3 19/2/3
f 21/1/4 22/1/4 23/1/4
f 23/1/4 22/1/4 24/1/4
f 28/1/5 26/1/5 25/1/5
f 28/2/5 27/2/5 26/2/5
f 29/2/5 27/2/5 28/2/5
f 30/1/5 28/1/5 25/1/5
f 30/1/5 29/1/5 28/1/5
f 31/1/5 29/1/5 30/1/5
f 32/2/6 33/2/6 34/2/6
f 34/2/6 33/2/6 35/2/6
f 34/1/6 35/1/6 36/1/6
f 36/1/6 35/1/6 37/1/6
