# MagicaVoxel @ Ephtracy

# group
o L_Forearm

# material
mtllib Circuit B - Character-4-L_Forearm.mtl
usemtl palette

# normals
vn -1 0 0
vn 1 0 0
vn 0 0 1
vn 0 0 -1
vn 0 -1 0
vn 0 1 0

# texcoords
vt 0.642578 0.5
vt 0.650391 0.5
vt 0.669922 0.5
vt 0.837891 0.5

# verts
v -0.15 -0.3 -0.05
v -0.15 -0.3 -0.15
v -0.15 -0.2 0.05
v -0.15 -0.2 -0.05
v -0.15 -0.2 -0.15
v -0.15 -0.1 0.15
v -0.15 -0.1 0.05
v -0.15 0.1 0.15
v -0.15 0.1 -0.15
v -0.15 0.2 0.15
v -0.15 0.2 -0.15
v -0.05 -0.2 0.15
v -0.05 -0.2 0.05
v -0.05 -0.1 0.15
v -0.05 -0.1 0.05
v -0.05 0.2 0.05
v -0.05 0.2 -0.15
v -0.05 0.3 0.05
v -0.05 0.3 -0.15
v 0.05 -0.3 -0.05
v 0.05 -0.3 -0.15
v 0.05 -0.2 0.15
v 0.05 -0.2 0.05
v 0.05 -0.2 -0.05
v 0.05 -0.2 -0.15
v 0.05 -0.1 0.15
v 0.05 -0.1 0.05
v 0.15 -0.2 0.05
v 0.15 -0.2 -0.15
v 0.15 -0.1 0.15
v 0.15 -0.1 0.05
v 0.15 0.1 0.15
v 0.15 0.1 -0.15
v 0.15 0.2 0.15
v 0.15 0.2 0.05
v 0.15 0.2 -0.15
v 0.15 0.3 0.05
v 0.15 0.3 -0.15
v -0.15 -0.1 0.15
v -0.15 0.1 0.15
v -0.15 0.2 0.15
v -0.05 -0.2 0.15
v -0.05 -0.1 0.15
v -0.05 0 0.15
v 0.05 -0.2 0.15
v 0.05 -0.1 0.15
v 0.05 0 0.15
v 0.15 -0.1 0.15
v 0.15 0.1 0.15
v 0.15 0.2 0.15
v -0.15 -0.2 0.05
v -0.15 -0.1 0.05
v -0.05 -0.2 0.05
v -0.05 -0.1 0.05
v -0.05 0.2 0.05
v -0.05 0.3 0.05
v 0.05 -0.2 0.05
v 0.05 -0.1 0.05
v 0.15 -0.2 0.05
v 0.15 -0.1 0.05
v 0.15 0.2 0.05
v 0.15 0.3 0.05
v -0.15 -0.3 -0.05
v -0.15 -0.2 -0.05
v 0.05 -0.3 -0.05
v 0.05 -0.2 -0.05
v -0.15 -0.3 -0.15
v -0.15 -0.2 -0.15
v -0.15 0.1 -0.15
v -0.15 0.2 -0.15
v -0.05 0.2 -0.15
v -0.05 0.3 -0.15
v 0.05 -0.3 -0.15
v 0.05 -0.2 -0.15
v 0.15 -0.2 -0.15
v 0.15 0.1 -0.15
v 0.15 0.2 -0.15
v 0.15 0.3 -0.15
v -0.15 -0.3 -0.05
v 0.05 -0.3 -0.05
v -0.15 -0.3 -0.15
v 0.05 -0.3 -0.15
v -0.05 -0.2 0.15
v 0.05 -0.2 0.15
v -0.15 -0.2 0.05
v -0.05 -0.2 0.05
v 0.05 -0.2 0.05
v 0.15 -0.2 0.05
v -0.15 -0.2 -0.05
v 0.05 -0.2 -0.05
v 0.05 -0.2 -0.15
v 0.15 -0.2 -0.15
v -0.15 -0.1 0.15
v -0.05 -0.1 0.15
v 0.05 -0.1 0.15
v 0.15 -0.1 0.15
v -0.15 -0.1 0.05
v -0.05 -0.1 0.05
v 0.05 -0.1 0.05
v 0.15 -0.1 0.05
v -0.15 0.2 0.15
v 0.15 0.2 0.15
v -0.05 0.2 0.05
v 0.15 0.2 0.05
v -0.15 0.2 -0.15
v -0.05 0.2 -0.15
v -0.05 0.3 0.05
v 0.15 0.3 0.05
v -0.05 0.3 -0.15
v 0.15 0.3 -0.15

# faces
f 4/4/1 2/4/1 1/4/1
f 5/4/1 2/4/1 4/4/1
f 7/2/1 4/2/1 3/2/1
f 7/2/1 5/2/1 4/2/1
f 8/2/1 7/2/1 6/2/1
f 9/2/1 5/2/1 7/2/1
f 9/2/1 7/2/1 8/2/1
f 10/1/1 9/1/1 8/1/1
f 11/1/1 9/1/1 10/1/1
f 14/2/1 13/2/1 12/2/1
f 15/2/1 13/2/1 14/2/1
f 18/4/1 17/4/1 16/4/1
f 19/4/1 17/4/1 18/4/1
f 20/4/2 21/4/2 24/4/2
f 24/4/2 21/4/2 25/4/2
f 22/2/2 23/2/2 26/2/2
f 26/2/2 23/2/2 27/2/2
f 28/2/2 29/2/2 31/2/2
f 30/2/2 31/2/2 32/2/2
f 31/2/2 29/2/2 33/2/2
f 32/2/2 31/2/2 33/2/2
f 32/1/2 33/1/2 34/1/2
f 34/1/2 33/1/2 35/1/2
f 35/1/2 33/1/2 36/1/2
f 35/4/2 36/4/2 37/4/2
f 37/4/2 36/4/2 38/4/2
f 43/2/3 40/2/3 39/2/3
f 44/2/3 40/2/3 43/2/3
f 45/2/3 43/2/3 42/2/3
f 46/3/3 44/3/3 43/3/3
f 46/2/3 43/2/3 45/2/3
f 47/2/3 40/2/3 44/2/3
f 47/3/3 44/3/3 46/3/3
f 48/2/3 47/2/3 46/2/3
f 49/1/3 41/1/3 40/1/3
f 49/2/3 47/2/3 48/2/3
f 49/2/3 40/2/3 47/2/3
f 50/1/3 41/1/3 49/1/3
f 53/2/3 52/2/3 51/2/3
f 54/2/3 52/2/3 53/2/3
f 59/2/3 58/2/3 57/2/3
f 60/2/3 58/2/3 59/2/3
f 61/4/3 56/4/3 55/4/3
f 62/4/3 56/4/3 61/4/3
f 65/4/3 64/4/3 63/4/3
f 66/4/3 64/4/3 65/4/3
f 69/1/4 70/1/4 71/1/4
f 67/4/4 68/4/4 73/4/4
f 68/2/4 69/2/4 74/2/4
f 73/4/4 68/4/4 74/4/4
f 74/2/4 69/2/4 75/2/4
f 69/1/4 71/1/4 76/1/4
f 75/2/4 69/2/4 76/2/4
f 71/4/4 72/4/4 77/4/4
f 76/1/4 71/1/4 77/1/4
f 77/4/4 72/4/4 78/4/4
f 81/4/5 80/4/5 79/4/5
f 82/4/5 80/4/5 81/4/5
f 86/2/5 84/2/5 83/2/5
f 87/2/5 84/2/5 86/2/5
f 89/2/5 86/2/5 85/2/5
f 89/2/5 88/2/5 87/2/5
f 89/2/5 87/2/5 86/2/5
f 90/2/5 88/2/5 89/2/5
f 91/2/5 88/2/5 90/2/5
f 92/2/5 88/2/5 91/2/5
f 97/2/5 94/2/5 93/2/5
f 98/2/5 94/2/5 97/2/5
f 99/2/5 96/2/5 95/2/5
f 100/2/5 96/2/5 99/2/5
f 101/1/6 102/1/6 103/1/6
f 103/1/6 102/1/6 104/1/6
f 101/1/6 103/1/6 105/1/6
f 105/1/6 103/1/6 106/1/6
f 107/4/6 108/4/6 109/4/6
f 109/4/6 108/4/6 110/4/6
