# MagicaVoxel @ Ephtracy

# group
o 

# material
mtllib Nuclear Survival - Pack 9-0.mtl
usemtl palette

# normals
vn -1 0 0
vn 1 0 0
vn 0 0 1
vn 0 0 -1
vn 0 -1 0
vn 0 1 0

# texcoords
vt 0.833984 0.5
vt 0.837891 0.5
vt 0.966797 0.5

# verts
v -1 -3.1 0.35
v -1 -3.1 -0.35
v -1 -3 0.35
v -1 -3 -0.35
v -0.9 -3 0.25
v -0.9 -3 -0.25
v -0.9 -2.8 -0.15
v -0.9 -2.8 -0.25
v -0.9 -2.4 -0.15
v -0.9 -2.4 -0.25
v -0.9 -2.3 0.25
v -0.9 -2.3 -0.25
v -0.9 -2.2 0.25
v -0.9 -2.2 -0.25
v -0.9 0.7 0.25
v -0.9 0.7 -0.25
v -0.9 0.8 0.25
v -0.9 0.8 -0.25
v -0.8 -2.2 0.15
v -0.8 -2.2 -0.15
v -0.8 -1.9 0.15
v -0.8 -1.9 0.05
v -0.8 -1.1 0.15
v -0.8 -1.1 0.05
v -0.8 -0.2 -0.05
v -0.8 -0.2 -0.15
v -0.8 0.4 -0.05
v -0.8 0.4 -0.15
v -0.8 0.7 0.15
v -0.8 0.7 -0.15
v -0.8 0.8 0.15
v -0.8 0.8 -0.15
v -0.8 1.2 0.15
v -0.8 1.2 0.05
v -0.8 2 0.15
v -0.8 2 0.05
v -0.8 2.3 -0.05
v -0.8 2.3 -0.15
v -0.8 2.9 0.15
v -0.8 2.9 -0.05
v -0.8 2.9 -0.15
v -0.7 2.7 0.25
v -0.7 2.7 0.15
v -0.7 2.7 -0.15
v -0.7 2.7 -0.25
v -0.7 2.9 0.15
v -0.7 2.9 -0.05
v -0.7 2.9 -0.15
v -0.7 3 0.25
v -0.7 3 0.15
v -0.7 3 -0.15
v -0.7 3 -0.25
v -0.7 3.1 0.15
v -0.7 3.1 -0.15
v -0.5 -2.2 0.15
v -0.5 -2.2 -0.05
v -0.5 -2.2 -0.15
v -0.5 -1.4 -0.05
v -0.5 -1.4 -0.15
v -0.5 -1.3 0.15
v -0.5 -1.3 0.05
v -0.5 -0.7 0.15
v -0.5 -0.7 0.05
v -0.5 -0.7 -0.05
v -0.5 -0.7 -0.15
v -0.5 -0.3 -0.05
v -0.5 -0.3 -0.15
v -0.5 0 0.15
v -0.5 0 0.05
v -0.5 0.6 0.15
v -0.5 0.6 0.05
v -0.5 0.7 0.15
v -0.5 0.7 -0.15
v -0.5 0.8 0.15
v -0.5 0.8 -0.15
v -0.5 1.3 0.15
v -0.5 1.3 0.05
v -0.5 1.3 -0.05
v -0.5 1.3 -0.15
v -0.5 1.5 0.15
v -0.5 1.5 0.05
v -0.5 2.1 -0.05
v -0.5 2.1 -0.15
v -0.5 2.7 0.15
v -0.5 2.7 -0.15
v -0.4 -3 0.25
v -0.4 -3 0.15
v -0.4 -3 -0.25
v -0.4 -2.7 -0.15
v -0.4 -2.7 -0.25
v -0.4 -2.4 0.25
v -0.4 -2.4 0.15
v -0.4 -2.4 -0.15
v -0.4 -2.4 -0.25
v -0.4 -2.3 0.25
v -0.4 -2.3 -0.25
v -0.4 -2.2 0.25
v -0.4 -2.2 -0.25
v -0.4 0.7 0.25
v -0.4 0.7 -0.25
v -0.4 0.8 0.25
v -0.4 0.8 -0.25
v -0.3 -3.1 0.35
v -0.3 -3.1 -0.35
v -0.3 -3 0.35
v -0.3 -3 -0.35
v 0.9 2.7 0.25
v 0.9 2.7 0.15
v 0.9 2.7 -0.15
v 0.9 2.7 -0.25
v 0.9 3 0.25
v 0.9 3 0.15
v 0.9 3 -0.15
v 0.9 3 -0.25
v 0.9 3.1 0.15
v 0.9 3.1 -0.15
v 1 2.7 0.15
v 1 2.7 -0.15
v 1 3 0.15
v 1 3 -0.15
v -1 -3.1 0.35
v -1 -3 0.35
v -0.3 -3.1 0.35
v -0.3 -3 0.35
v -0.9 -3 0.25
v -0.9 -2.3 0.25
v -0.9 -2.2 0.25
v -0.9 0.7 0.25
v -0.9 0.8 0.25
v -0.7 2.7 0.25
v -0.7 3 0.25
v -0.5 -3 0.25
v -0.5 -2.4 0.25
v -0.4 -3 0.25
v -0.4 -2.4 0.25
v -0.4 -2.3 0.25
v -0.4 -2.2 0.25
v -0.4 0.7 0.25
v -0.4 0.8 0.25
v -0.3 2.9 0.25
v -0.3 3 0.25
v 0 2.9 0.25
v 0 3 0.25
v 0.9 2.7 0.25
v 0.9 3 0.25
v -0.8 -2.2 0.15
v -0.8 -1.9 0.15
v -0.8 -1.1 0.15
v -0.8 0.7 0.15
v -0.8 0.8 0.15
v -0.8 1.2 0.15
v -0.8 2 0.15
v -0.8 2.9 0.15
v -0.7 -1.9 0.15
v -0.7 -1.1 0.15
v -0.7 1.2 0.15
v -0.7 2 0.15
v -0.7 2.7 0.15
v -0.7 2.9 0.15
v -0.7 3 0.15
v -0.7 3.1 0.15
v -0.6 -1.3 0.15
v -0.6 -0.7 0.15
v -0.6 0 0.15
v -0.6 0.6 0.15
v -0.6 1.3 0.15
v -0.6 1.5 0.15
v -0.5 -2.2 0.15
v -0.5 -1.3 0.15
v -0.5 -0.7 0.15
v -0.5 0 0.15
v -0.5 0.6 0.15
v -0.5 0.7 0.15
v -0.5 0.8 0.15
v -0.5 1.3 0.15
v -0.5 1.5 0.15
v -0.5 2.7 0.15
v -0.3 3 0.15
v 0 3 0.15
v 0.9 2.7 0.15
v 0.9 3 0.15
v 0.9 3.1 0.15
v 1 2.7 0.15
v 1 3 0.15
v -0.8 -2.2 -0.15
v -0.8 -0.2 -0.15
v -0.8 0.4 -0.15
v -0.8 0.7 -0.15
v -0.8 0.8 -0.15
v -0.8 2.3 -0.15
v -0.8 2.9 -0.15
v -0.7 -0.2 -0.15
v -0.7 0.4 -0.15
v -0.7 2.3 -0.15
v -0.7 2.7 -0.15
v -0.7 2.9 -0.15
v -0.7 3 -0.15
v -0.7 3.1 -0.15
v -0.6 -2.2 -0.15
v -0.6 -1.4 -0.15
v -0.6 -0.7 -0.15
v -0.6 -0.3 -0.15
v -0.6 1.3 -0.15
v -0.6 2.1 -0.15
v -0.5 -2.2 -0.15
v -0.5 -1.4 -0.15
v -0.5 -0.7 -0.15
v -0.5 -0.3 -0.15
v -0.5 0.7 -0.15
v -0.5 0.8 -0.15
v -0.5 1.3 -0.15
v -0.5 2.1 -0.15
v -0.5 2.7 -0.15
v -0.5 3 -0.15
v 0.4 3 -0.15
v 0.9 2.7 -0.15
v 0.9 3 -0.15
v 0.9 3.1 -0.15
v 1 2.7 -0.15
v 1 3 -0.15
v -0.9 -3 -0.25
v -0.9 -2.8 -0.25
v -0.9 -2.4 -0.25
v -0.9 -2.3 -0.25
v -0.9 -2.2 -0.25
v -0.9 0.7 -0.25
v -0.9 0.8 -0.25
v -0.8 -2.8 -0.25
v -0.8 -2.4 -0.25
v -0.7 2.7 -0.25
v -0.7 3 -0.25
v -0.5 -2.7 -0.25
v -0.5 -2.4 -0.25
v -0.5 2.9 -0.25
v -0.5 3 -0.25
v -0.4 -3 -0.25
v -0.4 -2.7 -0.25
v -0.4 -2.4 -0.25
v -0.4 -2.3 -0.25
v -0.4 -2.2 -0.25
v -0.4 0.7 -0.25
v -0.4 0.8 -0.25
v 0.4 2.9 -0.25
v 0.4 3 -0.25
v 0.9 2.7 -0.25
v 0.9 3 -0.25
v -1 -3.1 -0.35
v -1 -3 -0.35
v -0.3 -3.1 -0.35
v -0.3 -3 -0.35
v -1 -3.1 0.35
v -0.3 -3.1 0.35
v -0.9 -3.1 0.25
v -0.4 -3.1 0.25
v -0.9 -3.1 -0.25
v -0.4 -3.1 -0.25
v -1 -3.1 -0.35
v -0.3 -3.1 -0.35
v -0.9 0.7 0.25
v -0.4 0.7 0.25
v -0.8 0.7 0.15
v -0.5 0.7 0.15
v -0.8 0.7 -0.15
v -0.5 0.7 -0.15
v -0.9 0.7 -0.25
v -0.4 0.7 -0.25
v -0.7 2.7 0.25
v 0.9 2.7 0.25
v -0.7 2.7 0.15
v -0.5 2.7 0.15
v 0.9 2.7 0.15
v 1 2.7 0.15
v -0.7 2.7 -0.15
v -0.5 2.7 -0.15
v 0.9 2.7 -0.15
v 1 2.7 -0.15
v -0.7 2.7 -0.25
v 0.9 2.7 -0.25
v -1 -3 0.35
v -0.3 -3 0.35
v -0.9 -3 0.25
v -0.5 -3 0.25
v -0.4 -3 0.25
v -0.4 -3 0.15
v -0.9 -3 -0.25
v -0.4 -3 -0.25
v -1 -3 -0.35
v -0.3 -3 -0.35
v -0.9 -2.2 0.25
v -0.4 -2.2 0.25
v -0.8 -2.2 0.15
v -0.5 -2.2 0.15
v -0.5 -2.2 -0.05
v -0.8 -2.2 -0.15
v -0.6 -2.2 -0.15
v -0.5 -2.2 -0.15
v -0.9 -2.2 -0.25
v -0.4 -2.2 -0.25
v -0.9 0.8 0.25
v -0.4 0.8 0.25
v -0.8 0.8 0.15
v -0.5 0.8 0.15
v -0.8 0.8 -0.15
v -0.5 0.8 -0.15
v -0.9 0.8 -0.25
v -0.4 0.8 -0.25
v -0.8 2.9 0.15
v -0.7 2.9 0.15
v -0.8 2.9 -0.05
v -0.7 2.9 -0.05
v -0.8 2.9 -0.15
v -0.7 2.9 -0.15
v -0.7 3 0.25
v -0.3 3 0.25
v 0 3 0.25
v 0.9 3 0.25
v -0.7 3 0.15
v -0.3 3 0.15
v 0 3 0.15
v 0.9 3 0.15
v 1 3 0.15
v -0.7 3 -0.15
v -0.5 3 -0.15
v 0.4 3 -0.15
v 0.9 3 -0.15
v 1 3 -0.15
v -0.7 3 -0.25
v -0.5 3 -0.25
v 0.4 3 -0.25
v 0.9 3 -0.25
v -0.7 3.1 0.15
v 0.9 3.1 0.15
v -0.7 3.1 -0.15
v 0.9 3.1 -0.15

# faces
f 3/2/1 2/2/1 1/2/1
f 4/2/1 2/2/1 3/2/1
f 7/1/1 6/1/1 5/1/1
f 8/1/1 6/1/1 7/1/1
f 9/1/1 7/1/1 5/1/1
f 9/2/1 8/2/1 7/2/1
f 10/2/1 8/2/1 9/2/1
f 11/1/1 9/1/1 5/1/1
f 11/1/1 10/1/1 9/1/1
f 12/1/1 10/1/1 11/1/1
f 13/2/1 12/2/1 11/2/1
f 14/2/1 12/2/1 13/2/1
f 17/2/1 16/2/1 15/2/1
f 18/2/1 16/2/1 17/2/1
f 21/1/1 20/1/1 19/1/1
f 22/1/1 20/1/1 21/1/1
f 23/2/1 22/2/1 21/2/1
f 24/1/1 20/1/1 22/1/1
f 24/2/1 22/2/1 23/2/1
f 25/1/1 24/1/1 23/1/1
f 25/1/1 20/1/1 24/1/1
f 26/1/1 20/1/1 25/1/1
f 27/1/1 25/1/1 23/1/1
f 27/2/1 26/2/1 25/2/1
f 28/2/1 26/2/1 27/2/1
f 29/1/1 27/1/1 23/1/1
f 29/1/1 28/1/1 27/1/1
f 30/1/1 28/1/1 29/1/1
f 33/1/1 32/1/1 31/1/1
f 34/1/1 32/1/1 33/1/1
f 35/2/1 34/2/1 33/2/1
f 36/1/1 32/1/1 34/1/1
f 36/2/1 34/2/1 35/2/1
f 37/1/1 36/1/1 35/1/1
f 37/1/1 32/1/1 36/1/1
f 38/1/1 32/1/1 37/1/1
f 39/1/1 37/1/1 35/1/1
f 40/2/1 38/2/1 37/2/1
f 40/1/1 37/1/1 39/1/1
f 41/2/1 38/2/1 40/2/1
f 46/1/1 43/1/1 42/1/1
f 48/1/1 45/1/1 44/1/1
f 49/1/1 47/1/1 46/1/1
f 49/1/1 48/1/1 47/1/1
f 49/1/1 46/1/1 42/1/1
f 50/1/1 48/1/1 49/1/1
f 51/1/1 45/1/1 48/1/1
f 51/1/1 48/1/1 50/1/1
f 52/1/1 45/1/1 51/1/1
f 53/1/1 51/1/1 50/1/1
f 54/1/1 51/1/1 53/1/1
f 55/1/2 56/1/2 58/1/2
f 56/2/2 57/2/2 58/2/2
f 58/2/2 57/2/2 59/2/2
f 55/1/2 58/1/2 60/1/2
f 58/1/2 59/1/2 60/1/2
f 60/1/2 59/1/2 61/1/2
f 60/2/2 61/2/2 62/2/2
f 61/1/2 59/1/2 63/1/2
f 62/2/2 61/2/2 63/2/2
f 63/1/2 59/1/2 64/1/2
f 64/1/2 59/1/2 65/1/2
f 62/1/2 63/1/2 66/1/2
f 63/1/2 64/1/2 66/1/2
f 64/2/2 65/2/2 66/2/2
f 66/2/2 65/2/2 67/2/2
f 62/1/2 66/1/2 68/1/2
f 66/1/2 67/1/2 68/1/2
f 68/1/2 67/1/2 69/1/2
f 68/2/2 69/2/2 70/2/2
f 69/1/2 67/1/2 71/1/2
f 70/2/2 69/2/2 71/2/2
f 70/1/2 71/1/2 72/1/2
f 71/1/2 67/1/2 73/1/2
f 72/1/2 71/1/2 73/1/2
f 74/1/2 75/1/2 76/1/2
f 76/1/2 75/1/2 77/1/2
f 77/1/2 75/1/2 78/1/2
f 78/1/2 75/1/2 79/1/2
f 76/2/2 77/2/2 80/2/2
f 77/1/2 78/1/2 81/1/2
f 80/2/2 77/2/2 81/2/2
f 78/2/2 79/2/2 82/2/2
f 81/1/2 78/1/2 82/1/2
f 80/1/2 81/1/2 82/1/2
f 82/2/2 79/2/2 83/2/2
f 80/1/2 82/1/2 84/1/2
f 82/1/2 83/1/2 84/1/2
f 84/1/2 83/1/2 85/1/2
f 87/1/2 88/1/2 89/1/2
f 89/1/2 88/1/2 90/1/2
f 86/2/2 87/2/2 91/2/2
f 87/1/2 89/1/2 92/1/2
f 91/2/2 87/2/2 92/2/2
f 89/2/2 90/2/2 93/2/2
f 92/1/2 89/1/2 93/1/2
f 93/2/2 90/2/2 94/2/2
f 91/1/2 92/1/2 95/1/2
f 92/1/2 93/1/2 95/1/2
f 93/1/2 94/1/2 95/1/2
f 95/1/2 94/1/2 96/1/2
f 95/2/2 96/2/2 97/2/2
f 97/2/2 96/2/2 98/2/2
f 99/2/2 100/2/2 101/2/2
f 101/2/2 100/2/2 102/2/2
f 103/2/2 104/2/2 105/2/2
f 105/2/2 104/2/2 106/2/2
f 107/1/2 108/1/2 111/1/2
f 111/1/2 108/1/2 112/1/2
f 109/1/2 110/1/2 113/1/2
f 113/1/2 110/1/2 114/1/2
f 112/1/2 113/1/2 115/1/2
f 115/1/2 113/1/2 116/1/2
f 117/1/2 118/1/2 119/1/2
f 119/1/2 118/1/2 120/1/2
f 123/2/3 122/2/3 121/2/3
f 124/2/3 122/2/3 123/2/3
f 132/1/3 126/1/3 125/1/3
f 133/1/3 126/1/3 132/1/3
f 134/2/3 133/2/3 132/2/3
f 135/1/3 126/1/3 133/1/3
f 135/2/3 133/2/3 134/2/3
f 136/2/3 127/2/3 126/2/3
f 136/1/3 126/1/3 135/1/3
f 137/2/3 127/2/3 136/2/3
f 138/2/3 129/2/3 128/2/3
f 139/2/3 129/2/3 138/2/3
f 140/1/3 131/1/3 130/1/3
f 141/1/3 131/1/3 140/1/3
f 142/1/3 140/1/3 130/1/3
f 142/2/3 141/2/3 140/2/3
f 143/2/3 141/2/3 142/2/3
f 144/1/3 142/1/3 130/1/3
f 144/1/3 143/1/3 142/1/3
f 145/1/3 143/1/3 144/1/3
f 154/1/3 147/1/3 146/1/3
f 154/2/3 148/2/3 147/2/3
f 155/1/3 149/1/3 148/1/3
f 155/2/3 148/2/3 154/2/3
f 156/2/3 152/2/3 151/2/3
f 156/1/3 151/1/3 150/1/3
f 157/1/3 153/1/3 152/1/3
f 157/2/3 152/2/3 156/2/3
f 158/1/3 153/1/3 157/1/3
f 159/1/3 153/1/3 158/1/3
f 162/1/3 155/1/3 154/1/3
f 163/1/3 149/1/3 155/1/3
f 163/1/3 155/1/3 162/1/3
f 164/1/3 149/1/3 163/1/3
f 165/1/3 149/1/3 164/1/3
f 166/1/3 157/1/3 156/1/3
f 166/1/3 158/1/3 157/1/3
f 167/1/3 158/1/3 166/1/3
f 168/1/3 162/1/3 154/1/3
f 168/1/3 154/1/3 146/1/3
f 169/2/3 163/2/3 162/2/3
f 169/1/3 162/1/3 168/1/3
f 170/1/3 164/1/3 163/1/3
f 170/2/3 163/2/3 169/2/3
f 171/2/3 165/2/3 164/2/3
f 171/1/3 164/1/3 170/1/3
f 172/1/3 149/1/3 165/1/3
f 172/2/3 165/2/3 171/2/3
f 173/1/3 149/1/3 172/1/3
f 174/1/3 156/1/3 150/1/3
f 174/1/3 166/1/3 156/1/3
f 175/2/3 167/2/3 166/2/3
f 175/1/3 166/1/3 174/1/3
f 176/1/3 158/1/3 167/1/3
f 176/2/3 167/2/3 175/2/3
f 177/1/3 158/1/3 176/1/3
f 178/1/3 161/1/3 160/1/3
f 179/1/3 161/1/3 178/1/3
f 181/1/3 161/1/3 179/1/3
f 182/1/3 161/1/3 181/1/3
f 183/1/3 181/1/3 180/1/3
f 184/1/3 181/1/3 183/1/3
f 185/1/4 186/1/4 192/1/4
f 186/2/4 187/2/4 192/2/4
f 187/1/4 188/1/4 193/1/4
f 192/2/4 187/2/4 193/2/4
f 190/2/4 191/2/4 194/2/4
f 189/1/4 190/1/4 194/1/4
f 194/2/4 191/2/4 195/2/4
f 195/2/4 191/2/4 196/2/4
f 192/1/4 193/1/4 199/1/4
f 185/1/4 192/1/4 199/1/4
f 199/1/4 193/1/4 200/1/4
f 200/1/4 193/1/4 201/1/4
f 201/1/4 193/1/4 202/1/4
f 194/1/4 195/1/4 203/1/4
f 189/1/4 194/1/4 203/1/4
f 203/1/4 195/1/4 204/1/4
f 199/2/4 200/2/4 205/2/4
f 200/1/4 201/1/4 206/1/4
f 205/2/4 200/2/4 206/2/4
f 201/2/4 202/2/4 207/2/4
f 206/1/4 201/1/4 207/1/4
f 202/1/4 193/1/4 208/1/4
f 207/2/4 202/2/4 208/2/4
f 193/1/4 188/1/4 209/1/4
f 208/1/4 193/1/4 209/1/4
f 189/1/4 203/1/4 210/1/4
f 203/2/4 204/2/4 211/2/4
f 210/1/4 203/1/4 211/1/4
f 204/1/4 195/1/4 212/1/4
f 211/2/4 204/2/4 212/2/4
f 212/1/4 195/1/4 213/1/4
f 197/1/4 198/1/4 214/1/4
f 214/1/4 198/1/4 215/1/4
f 215/1/4 198/1/4 217/1/4
f 217/1/4 198/1/4 218/1/4
f 216/1/4 217/1/4 219/1/4
f 219/1/4 217/1/4 220/1/4
f 221/1/4 222/1/4 228/1/4
f 222/2/4 223/2/4 228/2/4
f 223/1/4 224/1/4 229/1/4
f 228/2/4 223/2/4 229/2/4
f 228/1/4 229/1/4 232/1/4
f 229/1/4 224/1/4 233/1/4
f 232/1/4 229/1/4 233/1/4
f 230/1/4 231/1/4 234/1/4
f 234/1/4 231/1/4 235/1/4
f 221/1/4 228/1/4 236/1/4
f 228/1/4 232/1/4 236/1/4
f 232/2/4 233/2/4 237/2/4
f 236/1/4 232/1/4 237/1/4
f 233/1/4 224/1/4 238/1/4
f 237/2/4 233/2/4 238/2/4
f 224/2/4 225/2/4 239/2/4
f 238/1/4 224/1/4 239/1/4
f 239/2/4 225/2/4 240/2/4
f 226/2/4 227/2/4 241/2/4
f 241/2/4 227/2/4 242/2/4
f 230/1/4 234/1/4 243/1/4
f 234/2/4 235/2/4 243/2/4
f 243/2/4 235/2/4 244/2/4
f 230/1/4 243/1/4 245/1/4
f 243/1/4 244/1/4 245/1/4
f 245/1/4 244/1/4 246/1/4
f 247/2/4 248/2/4 249/2/4
f 249/2/4 248/2/4 250/2/4
f 253/2/5 252/2/5 251/2/5
f 254/2/5 252/2/5 253/2/5
f 255/2/5 253/2/5 251/2/5
f 255/1/5 254/1/5 253/1/5
f 256/2/5 252/2/5 254/2/5
f 256/1/5 254/1/5 255/1/5
f 257/2/5 255/2/5 251/2/5
f 257/2/5 256/2/5 255/2/5
f 258/2/5 252/2/5 256/2/5
f 258/2/5 256/2/5 257/2/5
f 261/2/5 260/2/5 259/2/5
f 262/2/5 260/2/5 261/2/5
f 263/2/5 261/2/5 259/2/5
f 264/2/5 260/2/5 262/2/5
f 265/2/5 263/2/5 259/2/5
f 265/2/5 264/2/5 263/2/5
f 266/2/5 260/2/5 264/2/5
f 266/2/5 264/2/5 265/2/5
f 269/1/5 268/1/5 267/1/5
f 270/1/5 268/1/5 269/1/5
f 271/1/5 268/1/5 270/1/5
f 274/3/5 271/3/5 270/3/5
f 275/1/5 272/1/5 271/1/5
f 275/3/5 271/3/5 274/3/5
f 276/1/5 272/1/5 275/1/5
f 277/1/5 274/1/5 273/1/5
f 277/1/5 275/1/5 274/1/5
f 278/1/5 275/1/5 277/1/5
f 279/2/6 280/2/6 281/2/6
f 281/2/6 280/2/6 282/2/6
f 282/2/6 280/2/6 283/2/6
f 283/2/6 280/2/6 284/2/6
f 279/2/6 281/2/6 285/2/6
f 284/2/6 280/2/6 286/2/6
f 279/2/6 285/2/6 287/2/6
f 285/2/6 286/2/6 287/2/6
f 286/2/6 280/2/6 288/2/6
f 287/2/6 286/2/6 288/2/6
f 289/2/6 290/2/6 291/2/6
f 291/2/6 290/2/6 292/2/6
f 292/2/6 290/2/6 293/2/6
f 289/2/6 291/2/6 294/2/6
f 293/2/6 290/2/6 296/2/6
f 294/2/6 295/2/6 297/2/6
f 295/2/6 296/2/6 297/2/6
f 289/2/6 294/2/6 297/2/6
f 296/2/6 290/2/6 298/2/6
f 297/2/6 296/2/6 298/2/6
f 299/2/6 300/2/6 301/2/6
f 301/2/6 300/2/6 302/2/6
f 299/2/6 301/2/6 303/2/6
f 302/2/6 300/2/6 304/2/6
f 299/2/6 303/2/6 305/2/6
f 303/2/6 304/2/6 305/2/6
f 304/2/6 300/2/6 306/2/6
f 305/2/6 304/2/6 306/2/6
f 307/1/6 308/1/6 309/1/6
f 309/1/6 308/1/6 310/1/6
f 309/2/6 310/2/6 311/2/6
f 311/2/6 310/2/6 312/2/6
f 313/1/6 314/1/6 317/1/6
f 314/2/6 315/2/6 318/2/6
f 317/1/6 314/1/6 318/1/6
f 315/1/6 316/1/6 319/1/6
f 318/2/6 315/2/6 319/2/6
f 319/1/6 316/1/6 320/1/6
f 320/1/6 321/1/6 325/1/6
f 325/1/6 321/1/6 326/1/6
f 322/1/6 323/1/6 327/1/6
f 323/2/6 324/2/6 328/2/6
f 327/1/6 323/1/6 328/1/6
f 324/1/6 325/1/6 329/1/6
f 328/2/6 324/2/6 329/2/6
f 329/1/6 325/1/6 330/1/6
f 331/1/6 332/1/6 333/1/6
f 333/1/6 332/1/6 334/1/6
