# MagicaVoxel @ Ephtracy

# group
o 

# material
mtllib Nuclear Survival - Pack 4-16.mtl
usemtl palette

# normals
vn -1 0 0
vn 1 0 0
vn 0 0 1
vn 0 0 -1
vn 0 -1 0
vn 0 1 0

# texcoords
vt 0.0253906 0.5
vt 0.0488281 0.5
vt 0.193359 0.5
vt 0.251953 0.5

# verts
v -0.85 -0.2 0.05
v -0.85 -0.2 -0.05
v -0.85 0.8 0.05
v -0.85 0.8 -0.05
v -0.45 -0.8 0.05
v -0.45 -0.8 -0.05
v -0.45 -0.2 0.05
v -0.45 -0.2 -0.05
v 0.25 -0.3 0.05
v 0.25 -0.3 -0.05
v 0.25 0.5 0.05
v 0.25 0.5 -0.05
v -0.15 0 0.05
v -0.15 0 -0.05
v -0.15 0.8 0.05
v -0.15 0.8 -0.05
v 0.15 -0.8 0.05
v 0.15 -0.8 -0.05
v 0.15 0 0.05
v 0.15 0 -0.05
v 0.85 -0.3 0.05
v 0.85 -0.3 -0.05
v 0.85 0.5 0.05
v 0.85 0.5 -0.05
v -0.85 -0.2 0.05
v -0.85 0.8 0.05
v -0.75 0 0.05
v -0.75 0.3 0.05
v -0.65 0.3 0.05
v -0.65 0.4 0.05
v -0.45 -0.8 0.05
v -0.45 -0.2 0.05
v -0.45 0.5 0.05
v -0.45 0.7 0.05
v -0.35 -0.7 0.05
v -0.35 -0.4 0.05
v -0.35 0.3 0.05
v -0.35 0.4 0.05
v -0.35 0.5 0.05
v -0.35 0.6 0.05
v -0.25 -0.7 0.05
v -0.25 -0.6 0.05
v -0.25 -0.5 0.05
v -0.25 -0.4 0.05
v -0.25 0 0.05
v -0.25 0.3 0.05
v -0.25 0.6 0.05
v -0.25 0.7 0.05
v -0.15 -0.5 0.05
v -0.15 -0.4 0.05
v -0.15 -0.3 0.05
v -0.15 -0.2 0.05
v -0.15 0 0.05
v -0.15 0.8 0.05
v 0.05 -0.6 0.05
v 0.05 -0.4 0.05
v 0.05 -0.3 0.05
v 0.05 -0.2 0.05
v 0.15 -0.8 0.05
v 0.15 0 0.05
v 0.25 -0.3 0.05
v 0.25 0.5 0.05
v 0.35 -0.2 0.05
v 0.35 -0.1 0.05
v 0.35 0.2 0.05
v 0.35 0.3 0.05
v 0.45 -0.1 0.05
v 0.45 0.1 0.05
v 0.45 0.3 0.05
v 0.45 0.4 0.05
v 0.55 -0.2 0.05
v 0.55 -0.1 0.05
v 0.65 0 0.05
v 0.65 0.1 0.05
v 0.75 -0.1 0.05
v 0.75 0 0.05
v 0.75 0.2 0.05
v 0.75 0.4 0.05
v 0.85 -0.3 0.05
v 0.85 0.5 0.05
v -0.85 -0.2 -0.05
v -0.85 0.8 -0.05
v -0.75 0 -0.05
v -0.75 0.3 -0.05
v -0.65 0.3 -0.05
v -0.65 0.4 -0.05
v -0.45 -0.8 -0.05
v -0.45 -0.2 -0.05
v -0.45 0.5 -0.05
v -0.45 0.7 -0.05
v -0.35 -0.7 -0.05
v -0.35 -0.4 -0.05
v -0.35 0.3 -0.05
v -0.35 0.4 -0.05
v -0.35 0.5 -0.05
v -0.35 0.6 -0.05
v -0.25 -0.7 -0.05
v -0.25 -0.6 -0.05
v -0.25 -0.5 -0.05
v -0.25 -0.4 -0.05
v -0.25 0 -0.05
v -0.25 0.3 -0.05
v -0.25 0.6 -0.05
v -0.25 0.7 -0.05
v -0.15 -0.5 -0.05
v -0.15 -0.4 -0.05
v -0.15 -0.3 -0.05
v -0.15 -0.2 -0.05
v -0.15 0 -0.05
v -0.15 0.8 -0.05
v 0.05 -0.6 -0.05
v 0.05 -0.4 -0.05
v 0.05 -0.3 -0.05
v 0.05 -0.2 -0.05
v 0.15 -0.8 -0.05
v 0.15 0 -0.05
v 0.25 -0.3 -0.05
v 0.25 0.5 -0.05
v 0.35 -0.2 -0.05
v 0.35 -0.1 -0.05
v 0.35 0.2 -0.05
v 0.35 0.3 -0.05
v 0.45 -0.1 -0.05
v 0.45 0.1 -0.05
v 0.45 0.3 -0.05
v 0.45 0.4 -0.05
v 0.55 -0.2 -0.05
v 0.55 -0.1 -0.05
v 0.65 0 -0.05
v 0.65 0.1 -0.05
v 0.75 -0.1 -0.05
v 0.75 0 -0.05
v 0.75 0.2 -0.05
v 0.75 0.4 -0.05
v 0.85 -0.3 -0.05
v 0.85 0.5 -0.05
v -0.45 -0.8 0.05
v 0.15 -0.8 0.05
v -0.45 -0.8 -0.05
v 0.15 -0.8 -0.05
v 0.25 -0.3 0.05
v 0.85 -0.3 0.05
v 0.25 -0.3 -0.05
v 0.85 -0.3 -0.05
v -0.85 -0.2 0.05
v -0.45 -0.2 0.05
v -0.85 -0.2 -0.05
v -0.45 -0.2 -0.05
v -0.15 0 0.05
v 0.15 0 0.05
v -0.15 0 -0.05
v 0.15 0 -0.05
v 0.25 0.5 0.05
v 0.85 0.5 0.05
v 0.25 0.5 -0.05
v 0.85 0.5 -0.05
v -0.85 0.8 0.05
v -0.15 0.8 0.05
v -0.85 0.8 -0.05
v -0.15 0.8 -0.05

# faces
f 3/3/1 2/3/1 1/3/1
f 4/3/1 2/3/1 3/3/1
f 7/1/1 6/1/1 5/1/1
f 8/1/1 6/1/1 7/1/1
f 11/1/1 10/1/1 9/1/1
f 12/1/1 10/1/1 11/1/1
f 13/3/2 14/3/2 15/3/2
f 15/3/2 14/3/2 16/3/2
f 17/1/2 18/1/2 19/1/2
f 19/1/2 18/1/2 20/1/2
f 21/1/2 22/1/2 23/1/2
f 23/1/2 22/1/2 24/1/2
f 27/3/3 26/3/3 25/3/3
f 28/3/3 26/3/3 27/3/3
f 29/2/3 28/2/3 27/2/3
f 29/3/3 26/3/3 28/3/3
f 30/3/3 26/3/3 29/3/3
f 32/3/3 27/3/3 25/3/3
f 33/3/3 26/3/3 30/3/3
f 34/3/3 26/3/3 33/3/3
f 35/1/3 32/1/3 31/1/3
f 36/1/3 32/1/3 35/1/3
f 37/2/3 29/2/3 27/2/3
f 37/2/3 30/2/3 29/2/3
f 38/3/3 33/3/3 30/3/3
f 38/2/3 30/2/3 37/2/3
f 39/2/3 34/2/3 33/2/3
f 39/3/3 33/3/3 38/3/3
f 40/2/3 34/2/3 39/2/3
f 41/4/3 36/4/3 35/4/3
f 41/1/3 35/1/3 31/1/3
f 42/4/3 36/4/3 41/4/3
f 43/4/3 36/4/3 42/4/3
f 44/1/3 32/1/3 36/1/3
f 44/4/3 36/4/3 43/4/3
f 45/3/3 27/3/3 32/3/3
f 45/2/3 37/2/3 27/2/3
f 46/3/3 38/3/3 37/3/3
f 46/2/3 37/2/3 45/2/3
f 46/3/3 40/3/3 39/3/3
f 46/3/3 39/3/3 38/3/3
f 47/2/3 34/2/3 40/2/3
f 47/3/3 40/3/3 46/3/3
f 48/3/3 26/3/3 34/3/3
f 48/2/3 34/2/3 47/2/3
f 49/4/3 43/4/3 42/4/3
f 49/1/3 44/1/3 43/1/3
f 50/1/3 32/1/3 44/1/3
f 50/1/3 44/1/3 49/1/3
f 51/1/3 32/1/3 50/1/3
f 52/3/3 47/3/3 46/3/3
f 52/1/3 32/1/3 51/1/3
f 52/3/3 46/3/3 45/3/3
f 52/3/3 48/3/3 47/3/3
f 52/3/3 45/3/3 32/3/3
f 53/3/3 48/3/3 52/3/3
f 54/3/3 26/3/3 48/3/3
f 54/3/3 48/3/3 53/3/3
f 55/4/3 50/4/3 49/4/3
f 55/4/3 49/4/3 42/4/3
f 55/1/3 42/1/3 41/1/3
f 56/1/3 51/1/3 50/1/3
f 56/4/3 50/4/3 55/4/3
f 57/4/3 52/4/3 51/4/3
f 57/1/3 51/1/3 56/1/3
f 58/1/3 53/1/3 52/1/3
f 58/4/3 52/4/3 57/4/3
f 59/1/3 55/1/3 41/1/3
f 59/1/3 57/1/3 56/1/3
f 59/1/3 58/1/3 57/1/3
f 59/1/3 41/1/3 31/1/3
f 59/1/3 56/1/3 55/1/3
f 60/1/3 53/1/3 58/1/3
f 60/1/3 58/1/3 59/1/3
f 63/1/3 62/1/3 61/1/3
f 64/1/3 62/1/3 63/1/3
f 65/1/3 62/1/3 64/1/3
f 66/1/3 62/1/3 65/1/3
f 67/4/3 64/4/3 63/4/3
f 67/1/3 65/1/3 64/1/3
f 68/1/3 65/1/3 67/1/3
f 69/1/3 62/1/3 66/1/3
f 69/4/3 66/4/3 65/4/3
f 70/1/3 62/1/3 69/1/3
f 71/1/3 63/1/3 61/1/3
f 71/4/3 68/4/3 67/4/3
f 71/4/3 67/4/3 63/4/3
f 72/4/3 68/4/3 71/4/3
f 73/4/3 68/4/3 72/4/3
f 74/1/3 65/1/3 68/1/3
f 74/4/3 68/4/3 73/4/3
f 75/4/3 73/4/3 72/4/3
f 75/1/3 72/1/3 71/1/3
f 76/1/3 74/1/3 73/1/3
f 76/4/3 73/4/3 75/4/3
f 77/1/3 65/1/3 74/1/3
f 77/1/3 74/1/3 76/1/3
f 77/4/3 70/4/3 69/4/3
f 77/4/3 69/4/3 65/4/3
f 78/1/3 62/1/3 70/1/3
f 78/4/3 70/4/3 77/4/3
f 79/1/3 77/1/3 76/1/3
f 79/1/3 76/1/3 75/1/3
f 79/1/3 78/1/3 77/1/3
f 79/1/3 71/1/3 61/1/3
f 79/1/3 75/1/3 71/1/3
f 80/1/3 62/1/3 78/1/3
f 80/1/3 78/1/3 79/1/3
f 81/3/4 82/3/4 83/3/4
f 83/3/4 82/3/4 84/3/4
f 83/2/4 84/2/4 85/2/4
f 84/3/4 82/3/4 85/3/4
f 85/3/4 82/3/4 86/3/4
f 81/3/4 83/3/4 88/3/4
f 86/3/4 82/3/4 89/3/4
f 89/3/4 82/3/4 90/3/4
f 87/1/4 88/1/4 91/1/4
f 91/1/4 88/1/4 92/1/4
f 83/2/4 85/2/4 93/2/4
f 85/2/4 86/2/4 93/2/4
f 86/3/4 89/3/4 94/3/4
f 93/2/4 86/2/4 94/2/4
f 89/2/4 90/2/4 95/2/4
f 94/3/4 89/3/4 95/3/4
f 95/2/4 90/2/4 96/2/4
f 91/4/4 92/4/4 97/4/4
f 87/1/4 91/1/4 97/1/4
f 97/4/4 92/4/4 98/4/4
f 98/4/4 92/4/4 99/4/4
f 92/1/4 88/1/4 100/1/4
f 99/4/4 92/4/4 100/4/4
f 88/3/4 83/3/4 101/3/4
f 83/2/4 93/2/4 101/2/4
f 93/3/4 94/3/4 102/3/4
f 101/2/4 93/2/4 102/2/4
f 95/3/4 96/3/4 102/3/4
f 94/3/4 95/3/4 102/3/4
f 96/2/4 90/2/4 103/2/4
f 102/3/4 96/3/4 103/3/4
f 90/3/4 82/3/4 104/3/4
f 103/2/4 90/2/4 104/2/4
f 98/4/4 99/4/4 105/4/4
f 99/1/4 100/1/4 105/1/4
f 100/1/4 88/1/4 106/1/4
f 105/1/4 100/1/4 106/1/4
f 106/1/4 88/1/4 107/1/4
f 102/3/4 103/3/4 108/3/4
f 107/1/4 88/1/4 108/1/4
f 101/3/4 102/3/4 108/3/4
f 103/3/4 104/3/4 108/3/4
f 88/3/4 101/3/4 108/3/4
f 108/3/4 104/3/4 109/3/4
f 104/3/4 82/3/4 110/3/4
f 109/3/4 104/3/4 110/3/4
f 105/4/4 106/4/4 111/4/4
f 98/4/4 105/4/4 111/4/4
f 97/1/4 98/1/4 111/1/4
f 106/1/4 107/1/4 112/1/4
f 111/4/4 106/4/4 112/4/4
f 107/4/4 108/4/4 113/4/4
f 112/1/4 107/1/4 113/1/4
f 108/1/4 109/1/4 114/1/4
f 113/4/4 108/4/4 114/4/4
f 97/1/4 111/1/4 115/1/4
f 112/1/4 113/1/4 115/1/4
f 113/1/4 114/1/4 115/1/4
f 87/1/4 97/1/4 115/1/4
f 111/1/4 112/1/4 115/1/4
f 114/1/4 109/1/4 116/1/4
f 115/1/4 114/1/4 116/1/4
f 117/1/4 118/1/4 119/1/4
f 119/1/4 118/1/4 120/1/4
f 120/1/4 118/1/4 121/1/4
f 121/1/4 118/1/4 122/1/4
f 119/4/4 120/4/4 123/4/4
f 120/1/4 121/1/4 123/1/4
f 123/1/4 121/1/4 124/1/4
f 122/1/4 118/1/4 125/1/4
f 121/4/4 122/4/4 125/4/4
f 125/1/4 118/1/4 126/1/4
f 117/1/4 119/1/4 127/1/4
f 123/4/4 124/4/4 127/4/4
f 119/4/4 123/4/4 127/4/4
f 127/4/4 124/4/4 128/4/4
f 128/4/4 124/4/4 129/4/4
f 124/1/4 121/1/4 130/1/4
f 129/4/4 124/4/4 130/4/4
f 128/4/4 129/4/4 131/4/4
f 127/1/4 128/1/4 131/1/4
f 129/1/4 130/1/4 132/1/4
f 131/4/4 129/4/4 132/4/4
f 130/1/4 121/1/4 133/1/4
f 132/1/4 130/1/4 133/1/4
f 125/4/4 126/4/4 133/4/4
f 121/4/4 125/4/4 133/4/4
f 126/1/4 118/1/4 134/1/4
f 133/4/4 126/4/4 134/4/4
f 132/1/4 133/1/4 135/1/4
f 131/1/4 132/1/4 135/1/4
f 133/1/4 134/1/4 135/1/4
f 117/1/4 127/1/4 135/1/4
f 127/1/4 131/1/4 135/1/4
f 134/1/4 118/1/4 136/1/4
f 135/1/4 134/1/4 136/1/4
f 139/1/5 138/1/5 137/1/5
f 140/1/5 138/1/5 139/1/5
f 143/1/5 142/1/5 141/1/5
f 144/1/5 142/1/5 143/1/5
f 147/3/5 146/3/5 145/3/5
f 148/3/5 146/3/5 147/3/5
f 149/1/6 150/1/6 151/1/6
f 151/1/6 150/1/6 152/1/6
f 153/1/6 154/1/6 155/1/6
f 155/1/6 154/1/6 156/1/6
f 157/3/6 158/3/6 159/3/6
f 159/3/6 158/3/6 160/3/6
